<svg xmlns="http://www.w3.org/2000/svg" xmlns:xlink="http://www.w3.org/1999/xlink" width="122" height="35" viewBox="0 0 122 35">
    <defs>
        <path id="a" d="M5.806 2.69L4.99 6.134h6.056l-.593 2.42H4.435l-1.126 4.748H.272L3.362.27h9.856l-.593 2.42z"/>
        <linearGradient id="b" x1="-141.624%" x2="345.301%" y1="-225.298%" y2="474.246%">
            <stop offset="0%" stop-color="#00B1FF"/>
            <stop offset="100%" stop-color="#1F42D3"/>
        </linearGradient>
        <path id="d" d="M3.363.064L.096 13.877h2.906L6.27.064z"/>
        <linearGradient id="e" x1="-137.522%" x2="271.07%" y1="-548.766%" y2="755.882%">
            <stop offset="0%" stop-color="#00B1FF"/>
            <stop offset="100%" stop-color="#1F42D3"/>
        </linearGradient>
        <path id="g" d="M11.6.12L7.175 6.935 5.935.121H3.03l1.94 10.035-.1.166c-.591.876-1.089 1.23-1.852 1.23a2.294 2.294 0 0 1-1.58-.615L.02 13.022c.557.54 1.663.875 2.688.875 1.918 0 3.138-.726 4.697-3.09L14.47.12H11.6z"/>
        <linearGradient id="h" x1="-196.516%" x2="255.974%" y1="-288.29%" y2="327.358%">
            <stop offset="0%" stop-color="#00B1FF"/>
            <stop offset="100%" stop-color="#1F42D3"/>
        </linearGradient>
        <path id="j" d="M12.22.27l-1.922 8.173L5.735.27H3.239L.149 13.302H3.13l1.941-8.155 4.562 8.155h2.478L15.2.27z"/>
        <linearGradient id="k" x1="-247.562%" x2="206.46%" y1="-317.678%" y2="243.327%">
            <stop offset="0%" stop-color="#00B1FF"/>
            <stop offset="100%" stop-color="#1F42D3"/>
        </linearGradient>
        <path id="m" d="M.014 6.087c-.1 2.699 1.828 4.486 4.883 4.486 3.54 0 6.148-2.495 6.271-5.827.1-2.718-1.81-4.487-4.884-4.487C2.763.26.137 2.754.014 6.087m2.948-.131C3.035 4 4.314 2.66 6.028 2.66c1.453 0 2.241.856 2.191 2.215C8.147 6.83 6.87 8.17 5.173 8.17c-1.454 0-2.26-.856-2.21-2.215"/>
        <linearGradient id="n" x1="-334.919%" x2="157.067%" y1="-457.665%" y2="191.126%">
            <stop offset="0%" stop-color="#00B1FF"/>
            <stop offset="100%" stop-color="#1F42D3"/>
        </linearGradient>
        <path id="p" d="M14.954.12L10.98 6.86 10.092.12H7.595L3.583 6.86 2.732.12H.086l1.4 10.017h2.832l3.678-6.238.925 6.238h2.87L17.694.12z"/>
        <linearGradient id="q" x1="-225.153%" x2="75.022%" y1="-176.61%" y2="67.084%">
            <stop offset="0%" stop-color="#00B1FF"/>
            <stop offset="100%" stop-color="#1F42D3"/>
        </linearGradient>
        <path id="s" d="M3.137.183L.048 13.215h3.037l.841-3.594h2.906c3.894 0 6.412-2.066 6.534-5.38C13.46 1.69 11.67.183 8.41.183H3.137zM5.581 2.64h2.366c1.527 0 2.4.596 2.353 1.862-.064 1.732-1.253 2.663-3.247 2.663H4.5L5.58 2.64z"/>
        <linearGradient id="t" x1="-93.942%" x2="336.155%" y1="-141.39%" y2="459.093%">
            <stop offset="0%" stop-color="#00B1FF"/>
            <stop offset="100%" stop-color="#1F42D3"/>
        </linearGradient>
        <path id="v" d="M.038 6c-.105 2.848 1.828 4.487 4.157 4.487 1.23 0 2.288-.41 3.116-1.136l-.222.987h2.757L12.209.32H9.302l-.31 1.36C8.378.638 7.24.173 5.786.173 2.694.173.162 2.63.038 6m2.93-.13c.072-1.955 1.351-3.296 3.065-3.296 1.453 0 2.26.857 2.21 2.216-.072 1.954-1.351 3.294-3.065 3.294-1.454 0-2.26-.855-2.21-2.215"/>
        <linearGradient id="w" x1="-156.028%" x2="337.784%" y1="-208.142%" y2="388.89%">
            <stop offset="0%" stop-color="#00B1FF"/>
            <stop offset="100%" stop-color="#1F42D3"/>
        </linearGradient>
        <path id="y" d="M11.803.034L7.378 6.848 6.138.034H3.233l1.94 10.035-.099.167c-.591.876-1.088 1.229-1.852 1.229a2.29 2.29 0 0 1-1.58-.614L.223 12.935c.557.54 1.663.875 2.687.875 1.92 0 3.139-.726 4.698-3.09L14.673.034h-2.87z"/>
        <linearGradient id="z" x1="-197.686%" x2="254.814%" y1="-289.893%" y2="325.792%">
            <stop offset="0%" stop-color="#00B1FF"/>
            <stop offset="100%" stop-color="#1F42D3"/>
        </linearGradient>
        <path id="B" d="M3.154.183L.064 13.215h9.56l.593-2.458h-6.54L6.19.183z"/>
        <linearGradient id="C" x1="-245.144%" x2="202.402%" y1="-468.643%" y2="351.239%">
            <stop offset="0%" stop-color="#00B1FF"/>
            <stop offset="100%" stop-color="#1F42D3"/>
        </linearGradient>
        <path id="E" d="M.102 6c-.105 2.848 1.828 4.487 4.157 4.487 1.23 0 2.288-.41 3.117-1.136l-.223.987H9.91L12.273.32H9.366l-.31 1.36C8.443.638 7.304.173 5.851.173 2.759.173.227 2.63.102 6m2.93-.13c.072-1.955 1.352-3.296 3.066-3.296 1.453 0 2.26.857 2.21 2.216-.073 1.954-1.352 3.294-3.065 3.294-1.454 0-2.26-.855-2.21-2.215"/>
        <linearGradient id="F" x1="-314.56%" x2="179.253%" y1="-399.813%" y2="197.221%">
            <stop offset="0%" stop-color="#00B1FF"/>
            <stop offset="100%" stop-color="#1F42D3"/>
        </linearGradient>
        <path id="H" d="M2.774.12l-.575 2.44H.653l-.53 2.233H1.67l-.95 4.04a4.912 4.912 0 0 0-.126.874c-.065 1.75 1.163 2.794 3.027 2.794.876 0 1.776-.15 2.518-.596l-.351-2.066c-.381.223-.796.353-1.187.353-.727 0-1.05-.353-1.027-.968.005-.13.01-.261.052-.41l.95-4.021h2.497l.53-2.234H5.105L5.68.12H2.774z"/>
        <linearGradient id="I" x1="-266.115%" x2="107.295%" y1="-696.786%" y2="185.361%">
            <stop offset="0%" stop-color="#00B1FF"/>
            <stop offset="100%" stop-color="#1F42D3"/>
        </linearGradient>
        <path id="K" d="M.121 6c-.1 2.717 1.829 4.487 4.96 4.487 1.527 0 3.051-.41 4.24-1.34l-1.14-1.918c-.711.596-1.692.93-2.717.93-1.658 0-2.471-.689-2.514-2.047h7.676c.11-.465.204-.987.224-1.527C10.95 1.904 9.17.173 6.243.173 2.76.173.245 2.649.121 6m5.911-3.65c1.341 0 2.208.746 2.16 2.068H3.216C3.655 3.17 4.635 2.35 6.032 2.35"/>
        <linearGradient id="L" x1="-457.617%" x2="86.322%" y1="-646.513%" y2="99.265%">
            <stop offset="0%" stop-color="#00B1FF"/>
            <stop offset="100%" stop-color="#1F42D3"/>
        </linearGradient>
        <path id="N" d="M4.972 1.513L5.258.321H2.501L.138 10.338h2.906l1.147-4.84c.443-1.88 1.571-2.682 3.286-2.682.242 0 .409.019.669.037l.62-2.68c-1.62 0-2.864.372-3.794 1.34"/>
        <linearGradient id="O" x1="-630.175%" x2="30.481%" y1="-1093.559%" y2="17.182%">
            <stop offset="0%" stop-color="#00B1FF"/>
            <stop offset="100%" stop-color="#1F42D3"/>
        </linearGradient>
        <path id="Q" d="M28.831.256C9.711.256 5.381 11.15 2.95 20.376.813 28.483 0 32.19 0 32.361c4.364-5.736 9.152-6.525 17.27-6.525h4.99c4.711 0 9.246-3.819 9.411-8.527H14.365c.165-4.709 5.64-8.645 12.983-8.527h11.46a8.69 8.69 0 0 0 3.5-.736c3.026-1.329 5.21-4.318 5.33-7.79H28.832z"/>
        <linearGradient id="R" x1="33.937%" x2="120.84%" y1="34.55%" y2="118.134%">
            <stop offset="0%" stop-color="#00B1FF"/>
            <stop offset="100%" stop-color="#1F42D3"/>
        </linearGradient>
    </defs>
    <g fill="none" fill-rule="evenodd">
        <g transform="translate(48.006 .8)">
            <mask id="c" fill="#fff">
                <use xlink:href="#a"/>
            </mask>
            <path fill="url(#b)" d="M5.806 2.69L4.99 6.134h6.056l-.593 2.42H4.435l-1.126 4.748H.272L3.362.27h9.856l-.593 2.42z" mask="url(#c)"/>
        </g>
        <g transform="translate(59.81 .224)">
            <mask id="f" fill="#fff">
                <use xlink:href="#d"/>
            </mask>
            <path fill="url(#e)" d="M3.363.064L.096 13.877h2.906L6.27.064z" mask="url(#f)"/>
        </g>
        <g transform="translate(63.265 3.964)">
            <mask id="i" fill="#fff">
                <use xlink:href="#g"/>
            </mask>
            <path fill="url(#h)" d="M11.6.12L7.175 6.935 5.935.121H3.03l1.94 10.035-.1.166c-.591.876-1.089 1.23-1.852 1.23a2.294 2.294 0 0 1-1.58-.615L.02 13.022c.557.54 1.663.875 2.688.875 1.918 0 3.138-.726 4.697-3.09L14.47.12H11.6z" mask="url(#i)"/>
        </g>
        <g transform="translate(76.51 .8)">
            <mask id="l" fill="#fff">
                <use xlink:href="#j"/>
            </mask>
            <path fill="url(#k)" d="M12.22.27l-1.922 8.173L5.735.27H3.239L.149 13.302H3.13l1.941-8.155 4.562 8.155h2.478L15.2.27z" mask="url(#l)"/>
        </g>
        <g transform="translate(91.769 3.677)">
            <mask id="o" fill="#fff">
                <use xlink:href="#m"/>
            </mask>
            <path fill="url(#n)" d="M.014 6.087c-.1 2.699 1.828 4.486 4.883 4.486 3.54 0 6.148-2.495 6.271-5.827.1-2.718-1.81-4.487-4.884-4.487C2.763.26.137 2.754.014 6.087m2.948-.131C3.035 4 4.314 2.66 6.028 2.66c1.453 0 2.241.856 2.191 2.215C8.147 6.83 6.87 8.17 5.173 8.17c-1.454 0-2.26-.856-2.21-2.215" mask="url(#o)"/>
        </g>
        <g transform="translate(104.15 3.964)">
            <mask id="r" fill="#fff">
                <use xlink:href="#p"/>
            </mask>
            <path fill="url(#q)" d="M14.954.12L10.98 6.86 10.092.12H7.595L3.583 6.86 2.732.12H.086l1.4 10.017h2.832l3.678-6.238.925 6.238h2.87L17.694.12z" mask="url(#r)"/>
        </g>
        <g transform="translate(32.459 18.062)">
            <mask id="u" fill="#fff">
                <use xlink:href="#s"/>
            </mask>
            <path fill="url(#t)" d="M3.137.183L.048 13.215h3.037l.841-3.594h2.906c3.894 0 6.412-2.066 6.534-5.38C13.46 1.69 11.67.183 8.41.183H3.137zM5.581 2.64h2.366c1.527 0 2.4.596 2.353 1.862-.064 1.732-1.253 2.663-3.247 2.663H4.5L5.58 2.64z" mask="url(#u)"/>
        </g>
        <g transform="translate(45.99 20.94)">
            <mask id="x" fill="#fff">
                <use xlink:href="#v"/>
            </mask>
            <path fill="url(#w)" d="M.038 6c-.105 2.848 1.828 4.487 4.157 4.487 1.23 0 2.288-.41 3.116-1.136l-.222.987h2.757L12.209.32H9.302l-.31 1.36C8.378.638 7.24.173 5.786.173 2.694.173.162 2.63.038 6m2.93-.13c.072-1.955 1.351-3.296 3.065-3.296 1.453 0 2.26.857 2.21 2.216-.072 1.954-1.351 3.294-3.065 3.294-1.454 0-2.26-.855-2.21-2.215" mask="url(#x)"/>
        </g>
        <g transform="translate(56.068 21.227)">
            <mask id="A" fill="#fff">
                <use xlink:href="#y"/>
            </mask>
            <path fill="url(#z)" d="M11.803.034L7.378 6.848 6.138.034H3.233l1.94 10.035-.099.167c-.591.876-1.088 1.229-1.852 1.229a2.29 2.29 0 0 1-1.58-.614L.223 12.935c.557.54 1.663.875 2.687.875 1.92 0 3.139-.726 4.698-3.09L14.673.034h-2.87z" mask="url(#A)"/>
        </g>
        <g transform="translate(69.6 18.062)">
            <mask id="D" fill="#fff">
                <use xlink:href="#B"/>
            </mask>
            <path fill="url(#C)" d="M3.154.183L.064 13.215h9.56l.593-2.458h-6.54L6.19.183z" mask="url(#D)"/>
        </g>
        <g transform="translate(80.828 20.94)">
            <mask id="G" fill="#fff">
                <use xlink:href="#E"/>
            </mask>
            <path fill="url(#F)" d="M.102 6c-.105 2.848 1.828 4.487 4.157 4.487 1.23 0 2.288-.41 3.117-1.136l-.223.987H9.91L12.273.32H9.366l-.31 1.36C8.443.638 7.304.173 5.851.173 2.759.173.227 2.63.102 6m2.93-.13c.072-1.955 1.352-3.296 3.066-3.296 1.453 0 2.26.857 2.21 2.216-.073 1.954-1.352 3.294-3.065 3.294-1.454 0-2.26-.855-2.21-2.215" mask="url(#G)"/>
        </g>
        <g transform="translate(93.784 18.926)">
            <mask id="J" fill="#fff">
                <use xlink:href="#H"/>
            </mask>
            <path fill="url(#I)" d="M2.774.12l-.575 2.44H.653l-.53 2.233H1.67l-.95 4.04a4.912 4.912 0 0 0-.126.874c-.065 1.75 1.163 2.794 3.027 2.794.876 0 1.776-.15 2.518-.596l-.351-2.066c-.381.223-.796.353-1.187.353-.727 0-1.05-.353-1.027-.968.005-.13.01-.261.052-.41l.95-4.021h2.497l.53-2.234H5.105L5.68.12H2.774z" mask="url(#J)"/>
        </g>
        <g transform="translate(101.27 20.94)">
            <mask id="M" fill="#fff">
                <use xlink:href="#K"/>
            </mask>
            <path fill="url(#L)" d="M.121 6c-.1 2.717 1.829 4.487 4.96 4.487 1.527 0 3.051-.41 4.24-1.34l-1.14-1.918c-.711.596-1.692.93-2.717.93-1.658 0-2.471-.689-2.514-2.047h7.676c.11-.465.204-.987.224-1.527C10.95 1.904 9.17.173 6.243.173 2.76.173.245 2.649.121 6m5.911-3.65c1.341 0 2.208.746 2.16 2.068H3.216C3.655 3.17 4.635 2.35 6.032 2.35" mask="url(#M)"/>
        </g>
        <g transform="translate(112.499 20.94)">
            <mask id="P" fill="#fff">
                <use xlink:href="#N"/>
            </mask>
            <path fill="url(#O)" d="M4.972 1.513L5.258.321H2.501L.138 10.338h2.906l1.147-4.84c.443-1.88 1.571-2.682 3.286-2.682.242 0 .409.019.669.037l.62-2.68c-1.62 0-2.864.372-3.794 1.34" mask="url(#P)"/>
        </g>
        <g transform="translate(.5 .8)">
            <mask id="S" fill="#fff">
                <use xlink:href="#Q"/>
            </mask>
            <path fill="url(#R)" d="M28.831.256C9.711.256 5.381 11.15 2.95 20.376.813 28.483 0 32.19 0 32.361c4.364-5.736 9.152-6.525 17.27-6.525h4.99c4.711 0 9.246-3.819 9.411-8.527H14.365c.165-4.709 5.64-8.645 12.983-8.527h11.46a8.69 8.69 0 0 0 3.5-.736c3.026-1.329 5.21-4.318 5.33-7.79H28.832z" mask="url(#S)"/>
        </g>
    </g>
</svg>
